# xmcd
#
# Track frame offsets:
#	150
#	18742
#	36855
#	56091
#	77031
#
# Disc length: 1327 seconds
# Revision: 0
# Processed by: cddbd v1.5.2PL0 Copyright (c) Steve Scherf et al.
# Submitted via: dBpowerAMP V12.0
#
DISCID=3b052d05
DTITLE=Kai Strauss Band - A Good Day /w Jeffrey Amankwe
DYEAR=2010
DGENRE=Blues
TTITLE0=Half A Meter
TTITLE1=A Good Day
TTITLE2=Sweet Sugar You
TTITLE3=If I Ever Get Lucky
TTITLE4=The Glue
EXTD=
EXTT0=
EXTT1=
EXTT2=
EXTT3=
EXTT4=
PLAYORDER=
